<?xml version="1.0" encoding="UTF-8"?>
<svg id="Capa_1" data-name="Capa 1" xmlns="http://www.w3.org/2000/svg" viewBox="0 0 385.55 107.17">
  <path d="M112.02,44.34c-.11-.59-.36-.71-.88-.7-2.21,.02-4.42-.04-6.62,.03-1.02,.03-1.5-.36-1.76-1.33-1.08-4.04-2.75-7.82-4.95-11.38-.7-1.13-.66-1.31,.29-2.2,1.69-1.6,3.39-3.2,5.14-4.86-4.18-5.59-9.13-10.23-14.94-14.08-1.83,1.72-3.64,3.39-5.4,5.1-.55,.53-1.04,.62-1.7,.25-4.01-2.26-8.25-3.9-12.73-4.95-.75-.18-1.05-.61-1.03-1.36,.03-1.44,0-2.88,0-4.32V1.7c-7.13-1.29-14.11-1.29-21.15,.01v6.59c0,1.61,0,1.63-1.53,2.02-3.98,1.02-7.79,2.45-11.42,4.4-1.75,.94-1.49,1.16-3.15-.43-1.57-1.49-3.15-2.97-4.76-4.48-5.81,3.85-10.74,8.48-14.94,14.08,1.78,1.68,3.45,3.31,5.19,4.87,.77,.69,.84,1.29,.3,2.15-2.25,3.56-3.93,7.38-5,11.46-.26,.99-.8,1.31-1.78,1.29-2.08-.05-4.16,.01-6.24-.03-.78-.02-1.16,.12-1.32,1.02-1.05,6.05-1.07,12.08,.07,18.13,.12,.63,.38,.76,.94,.75,2.18-.02,4.35,.04,6.52-.03,1.06-.03,1.55,.36,1.82,1.37,1.01,3.75,2.51,7.3,4.52,10.63,1.17,1.93,1.15,1.94-.47,3.47-1.51,1.42-3.01,2.84-4.5,4.25,2.71,4.32,11.27,12.34,14.97,14.05,1.68-1.59,3.42-3.15,5.06-4.8,.74-.74,1.35-.84,2.25-.32,3.72,2.11,7.68,3.62,11.82,4.67,1.64,.41,1.63,.44,1.63,2.13v6.52c7.09,1.29,14.08,1.3,21.15,0,0-2.3,.05-4.57-.02-6.83-.03-1.02,.32-1.52,1.31-1.75,4.32-1.01,8.42-2.6,12.28-4.79,.82-.47,1.37-.35,2.02,.29,1.71,1.67,3.48,3.29,5.27,4.98,5.81-3.84,10.76-8.49,14.94-14.08-1.77-1.67-3.46-3.32-5.22-4.9-.74-.66-.81-1.25-.29-2.07,2.27-3.59,3.96-7.44,5.04-11.55,.25-.95,.78-1.26,1.72-1.24,2.21,.04,4.42,0,6.62,.02,.51,0,.78-.08,.9-.69,1.17-6.17,1.17-12.33,0-18.5Zm-55.14,40.92c-17.5,0-31.68-14.18-31.68-31.68s14.18-31.68,31.68-31.68,31.68,14.18,31.68,31.68-14.18,31.68-31.68,31.68Z" style="fill: #fff;"/>
  <g>
    <path d="M67.09,40.23c.69-.8,1.36-1.6,2.07-2.35,.2-.21,.53-.4,.81-.42,1.85-.11,3.49-1.8,3.5-3.66,0-1.12-.13-2.27,.04-3.36,.14-.87,.67-1.67,1-2.51,.8-2.08,1.09-4.23,1.09-6.47,0-2.27-.9-4.14-2.12-5.9-.83-1.2-1.8-2.3-2.76-3.4-.79-.91-1.66-1.66-2.91-2.03-1.08-.32-2.11-.96-3.01-1.64-1.24-.94-3.57-1.38-4.62,.17-.33,.48-.7,.96-1.14,1.33-.33,.28-.85,.59-1.21,.52-1.89-.38-3.53-.17-4.88,1.38-.51,.58-1.2,1.02-1.85,1.46-.62,.43-1.14,.13-1.28-.49-.13-.57-.11-1.13-.84-1.22-.8-.1-1.41,.06-1.96,.82-1.13,1.57-.79,3.3-.75,5.01,0,.22,.11,.49,.02,.66-.85,1.6-.68,3.16,.07,4.74,.14,.29,.13,.73,.02,1.03-1.32,3.47-1.34,7.04-.67,10.6,.53,2.79,1.8,5.3,4.05,7.47-.89,.32-1.58,.64-2.32,.83-1.62,.42-3.28,1.18-4.87,1.08-3.75-.26-7.3-1.27-9.85-4.44-.86-1.07-2-1.9-2.89-2.95-1.74-2.08-1.79-2.29-.75-4.67,.23-.53,.57-1.03,.76-1.58,.75-2.25,.76-3.53-1.15-4.08-1.24-.36-2.73-.59-3.91-.24-3.61,1.09-4.53,4.34-3.77,7.85,.25,1.14,.72,2.24,1.06,3.27-1.28,0-2.5-.13-3.67,.04-.87,.13-1.8,.51-2.49,1.04-1.16,.91-1.32,2.72-.64,4.4,.13,.32,.29,.81,.15,1.02-1.23,1.84-.71,3.44,.57,5.01-.83,1.19-.98,2.58-.26,3.77,1.22,2.03,3.07,3.18,5.48,3.64,1.84,.35,3.87-.44,5.54,1,1.14,.98,2.95,.25,4.06,1.43,3.26,.59,6.53,.75,9.79,.09,1.15-.23,2.26-.63,3.45-.97,.1,1.09,.18,2.02,.28,2.94,.35,3.54,.89,7.06,.42,10.64-.41,3.17-.61,6.37-1.09,9.53-.32,2.11,.22-.55-.21,1.54,.03,.02-.04,.47,0,.5,1.21,.71,2.48,1.13,3.88,1.24,3.27,.24,7.85,2.04,11.06,1.49,6.78-1.16,10.65-.98,16.84-4.05,0,0,.41-.41,.41-.41,.03-.55,.79-.31,.82-.87,.23-.05,.69-.21,1.15-.23,2.08-.07,2.95-1.96,2.02-3.79,1.31-1.07,2.05-2.38,2.08-4.18,0-.64,.77-1.33,1.3-1.89,2.22-2.35,3.53-5.2,4.71-8.14,.29-.71,.56-1.43,.84-2.15v-2.31c-4.35-9.25-12.22-14.09-21.47-17.14Z"/>
    <path d="M68.45,22.68c.56-.41,1.02-.71,1.43-1.06,.73-.63,.8-1.42,.44-2.28-.34-.84-1-1.12-1.85-1.02-.94,.12-1.87,.34-2.8,.35-.52,0-1.23-.21-1.53-.58-1.3-1.62-2.84-2.04-4.74-1.27-1,.41-1.93,.4-2.87-.28-.8-.58-1.63-.52-2.34,.26-.23,.26-.51,.48-.74,.74-.92,1.05-1.78,2.17-3.29,2.44-.19,.03-.37,.3-.5,.5-2.89,4.37-4.1,9.07-2.62,14.24,1.48,5.15,4.71,8.54,10.05,9.72,.7,.15,1.43,.13,2.15,.19v.2c-.7,.15-1.41,.31-2.21,.48,2.8,1.23,7.94-1.16,7.94-3.51-.75,.18-1.52,.37-2.3,.55-.03-.09-.06-.17-.09-.26,.16-.11,.3-.24,.47-.34,1.95-1.17,3.54-2.72,4.87-4.54,.39-.54,.79-.78,1.5-.9,.76-.13,1.59-.59,2.12-1.15,1.17-1.27,.99-2.66-.24-3.99,1.03,.06,.87-.44,.54-.89-.86-1.18-1.76-2.33-2.64-3.49-.22-.29-.46-.58-.69-.86,.09-.07,.17-.13,.26-.2,1.84,.81,2.43,2.72,3.54,4.19-.56-2.41-2.12-4.19-3.74-5.97,1.1,.12,1.64,.97,2.19,1.72,.6,.81,1.07,1.72,1.75,2.82-.23-2.86-2.07-4.26-4.06-5.79Z"/>
    <path d="M33.96,42.42c.85,5.35,.29,10.25-2.81,14.67,6.12,1.49,9.76,.72,16.57-3.52,.4,.48,.42,.91-.11,1.32-.63,.49-1.22,1.05-1.89,1.49-.49,.31-.61,.63-.55,1.2,.29,2.67,.5,5.35,.81,8.02,.05,.45,.31,1.02,.66,1.27,3.52,2.59,7.57,3.45,11.84,3.52,.85,.01,1.38-.43,1.44-1.33,.02-.35,.06-.7,.07-1.04,.13-5.63-.91-11.12-1.96-16.61-.06-.31-.45-.66-.77-.8-1.21-.53-2.51-.86-3.67-1.48-2.22-1.19-3.63-3.1-4.47-5.64-5.25,2.52-10.27,1.93-15.17-1.07Z"/>
    <path d="M49.47,43.49c.34,.68,.58,1.39,.99,1.97,1.44,2.02,3.49,3.29,5.84,3.81,1.51,.34,1.98,1.03,2.23,2.45,.96,5.58,1.75,11.17,1.88,16.84,.07,2.97-.05,3.06-3.04,2.87-3.94-.26-7.64-1.21-10.85-3.64-.12-.09-.29-.12-.59-.22,0,1.59,.08,3.06-.02,4.52-.21,3.4-.16,3.53,3,4.92,.45,.2,.9,.37,1.37,.53,5.34,1.87,10.65,1.38,15.95-.17,2.89-.85,5.56-2.07,7.64-4.33,.26-.28,.53-.72,.49-1.06-.19-1.83-.48-3.64-.73-5.44-1.89,1.15-3.74,2.28-5.63,3.44-.22-.4-.34-.54-.37-.7-.11-.47-.24-.95-.27-1.44-.38-5.81-1.59-11.47-3.05-17.08-.27-1.04-.14-1.56,.88-1.99,1.83-.78,3.17-2.12,3.51-4.13,.41-2.38,.07-2.72-2.21-3.07-1.12,3.11-3.6,4.57-6.64,5.07-2.4,.39-4.71,.05-6.19-2.28-.93-1.47-2.5-1.85-4.2-.85Z"/>
    <path d="M80.5,70.69c.27-.24,.48-.42,.67-.62,3.02-3.11,4.87-6.88,6.09-10.97,.18-.59-.05-1.39-.3-2-.35-.86-.86-1.68-1.38-2.46-3.17-4.85-7.63-8.19-12.74-10.74-1.19-.59-2.43-1.06-3.86-1.69,1.12,4.3-1.02,6.56-4.14,8.03,1.1,6.18,2.17,12.21,3.26,18.28,.07-.01,.27,0,.4-.08,1.57-1.04,3.14-2.08,4.67-3.16,.17-.12,.22-.56,.18-.83-.28-2.08-.6-4.15-.89-6.22-.24-1.7-.47-3.41-.7-5.11,.11-.02,.22-.03,.33-.05,.52,3.54,1.04,7.09,1.61,10.95,.91-2.56,1.69-4.83,3.61-6.46,.54,.57,.38,.96-.05,1.41-1.64,1.71-2.57,3.82-3.09,6.09-.19,.83-.03,1.74-.03,2.74,3.01-.61,4.74,.89,6.35,2.89Z"/>
    <path d="M19.81,51.42l.24-.09c.66,.38,1.29,.82,1.99,1.13,1.3,.59,2.68,.92,4.05,.32,.52-.23,1.22-.72,1.28-1.17,.06-.45-.46-1.18-.93-1.47-2.4-1.48-5.06-2.01-7.84-1.55-2.05,.34-2.62,2.01-1.36,3.65,1.41,1.84,3.42,2.44,5.6,2.67,4.13,.44,7.52-1.81,8.43-5.59,.03-.12,0-.26,0-.44-.28,.11-.49,.2-.7,.28q-.42-.84,.19-1.41c2.54-2.39,2.71-5.6,.38-8.19-.65-.73-1.37-1.4-2.09-2.06-2.05-1.88-2.4-3.55-1.25-6.09,.35-.76,.72-1.52,1.02-2.3,.42-1.11,.18-1.62-.96-1.98-1.65-.52-3.19-.35-4.43,.98-1.41,1.52-1.94,3.28-1.25,5.31,.45,1.34,.89,2.68,1.36,4.11,.93,.46,2.1,.93,3.16,1.58,2.14,1.33,2.96,4.19,1.03,6.15,1.38,2.26,1.33,3.68-.2,5.06,.06,.15,.12,.31,.17,.47,.62,1.79-.05,2.98-1.9,3.26-2.11,.32-3.92-.41-5.53-1.72-.24-.2-.32-.6-.47-.91Z"/>
    <path d="M72.99,27.71c.09,0,.18,0,.28,0,.32-1.14,.67-2.26,.96-3.41,.78-3.09-.21-5.79-1.99-8.25-.87-1.2-1.85-2.34-2.88-3.41-.51-.53-1.21-.96-1.9-1.2-1.3-.44-2.54-.86-3.56-1.88-1.03-1.04-1.97-.94-2.95,.14-.37,.41-.74,.84-1.04,1.31-.59,.93-1.3,1.25-2.36,.74-1.32-.63-2.42-.19-3.39,.81-.48,.5-.99,.99-1.54,1.42-1.77,1.42-3.35,1.03-4.2-1.02-1.24,1.19-1.5,2.92-.73,4.72,.71,1.66,1.87,2.04,3.44,1.1,.35-.21,.66-.5,.96-.79,.67-.66,1.31-1.36,1.99-2,.69-.65,1.61-.84,2.3-.27,1.26,1.04,2.3,.54,3.42-.13,.33-.2,.68-.36,1.01-.55,.78-.44,1.48-.31,2.08,.32,.53,.56,1.07,1.11,1.5,1.74,.64,.93,1.35,1.31,2.45,.77,.49-.24,1.07-.29,1.62-.41,1.28-.28,2.33,.14,2.88,1.13,.7,1.26,.57,2.17-.48,3.2-.37,.37-.78,.7-1.22,1.1,1.54,1.32,2.99,2.69,3.33,4.82Z"/>
    <path d="M19.85,47.4c2.13,.04,4.2,.36,6.06,1.43,.6,.35,1.19,.51,1.59,.04,.38-.45,.7-1.18,.63-1.73-.08-.58-.56-1.22-1.05-1.6-2.67-2.07-5.81-2.36-9.03-2.14-.91,.06-1.57,.71-1.96,1.56-.37,.82-.04,1.52,.48,2.11,.24,.27,.66,.51,1,.52,.76,.02,1.52-.13,2.28-.2Z"/>
    <path d="M19.33,38.14c-.4,.06-.93,.09-1.42,.24-1.67,.5-2.32,2.2-1.39,3.66,.13,.21,.56,.39,.8,.34,3.01-.63,5.82,0,8.48,1.36,.8,.41,1.4,.53,2.03-.16,.64-.71,.8-1.52,.15-2.26-.54-.62-1.16-1.22-1.86-1.62-2.05-1.18-4.35-1.37-6.78-1.56Z"/>
    <path d="M77,75.6c.33-.07,.64-.12,.93-.21,1.56-.5,2.85-2.43,2.47-3.68-.59-1.96-3.89-3.47-5.92-2.68,.36,3.22,.72,6.46,1.11,9.93,.93-.21,1.8-.34,2.63-.62,.29-.1,.45-.57,.66-.87-.3-.2-.57-.5-.89-.59-.63-.17-1.14-.36-.99-1.28Z"/>
    <path d="M33.51,42.4c-.13,.02-.25,.03-.38,.05,.2,1.81,.08,3.56-.92,5.15-.13,.21-.1,.54-.12,.81-.19,2.48-1.12,4.59-3.17,6.1-.57,.42-1.2,.76-1.82,1.15,2.11,1.15,2.82,1.22,4.41-.89,.5-.66,.99-1.41,1.17-2.2,.52-2.3,.98-4.62,1.26-6.96,.12-1.04-.27-2.14-.42-3.21Z"/>
    <path d="M49.07,19.93c-.33-.25-.58-.44-.83-.62-.77-.56-1.18-.45-1.22,.49-.04,.81,.23,1.64,.36,2.46,.11-.02,.21-.03,.32-.05,.45-.74,.9-1.49,1.37-2.27Z"/>
    <path d="M68.45,22.68c1.99,1.53,3.82,2.94,4.06,5.79-.67-1.1-1.14-2.01-1.75-2.82-.56-.75-1.1-1.6-2.19-1.72,1.63,1.78,3.18,3.56,3.74,5.97-1.11-1.47-1.7-3.38-3.54-4.19-.09,.07-.17,.13-.26,.2,.23,.29,.47,.57,.69,.86,.89,1.16,1.79,2.31,2.64,3.49,.33,.45,.49,.95-.54,.89,1.23,1.33,1.41,2.72,.24,3.99-.52,.57-1.36,1.02-2.12,1.15-.7,.12-1.1,.36-1.5,.9-1.33,1.82-2.92,3.37-4.87,4.54-.16,.1-.31,.23-.47,.34,.03,.09,.06,.17,.09,.26,.77-.19,1.55-.37,2.3-.55,0,2.35-5.14,4.74-7.94,3.51,.8-.17,1.51-.33,2.22-.48v-.2c-.72-.06-1.46-.03-2.16-.19-5.33-1.18-8.57-4.58-10.05-9.72-1.49-5.16-.28-9.86,2.62-14.24,.13-.2,.31-.46,.5-.5,1.51-.27,2.37-1.39,3.29-2.44,.23-.26,.51-.48,.74-.74,.71-.78,1.54-.84,2.34-.26,.93,.68,1.87,.69,2.87,.28,1.9-.77,3.44-.35,4.74,1.27,.3,.37,1.01,.59,1.53,.58,.93,0,1.87-.23,2.8-.35,.85-.11,1.51,.18,1.85,1.02,.35,.86,.29,1.65-.44,2.28-.41,.36-.87,.65-1.43,1.06Zm-19.16,13.38c.2-1.14,.71-.63,1.17-.3,1.6,1.16,3.31,2.12,5.33,1.6,1.47-.38,2.84-1.11,4.26-1.68,.4-.16,.81-.31,1.21-.46,.09,.41,.18,.82,.28,1.22,.01,.05,.09,.07,.25,.2,.17-.52,.37-.99,.47-1.47,.09-.45,.27-1.12,.05-1.36-.72-.8-1.61-1.45-2.27-2.01-.27,.58-.38,1.31-.71,1.43-2.8,1.04-5.68,1.5-8.6,.53-.54-.18-.97-.66-1.52-1.06q-1.38,1.21,.07,3.36Zm5.74-4.29c-.38-1.1-.94-1.9-.84-2.6,.11-.79,.82-1.5,1.26-2.24,.16-.27,.31-.55,.43-.83,.22-.53,.42-1.08,.63-1.62-.33-.03-.47,.02-.55,.12-1.07,1.41-2.17,2.81-3.18,4.26-.67,.95,.26,1.63,.67,2.3,.21,.34,.91,.38,1.56,.62Zm-2.94-6.67c-.36-.47-.67-.86-.98-1.25-.32,.36-.85,.68-.91,1.08-.09,.63,.11,1.31,.25,1.95,.02,.08,.65,.16,.71,.05,.33-.53,.58-1.11,.92-1.82Zm7.84,1.19c.48,.61,.85,1.44,1.17,1.42,.9-.06,.97-.97,.99-1.68,.02-.58,.02-1.52-.78-1.39-.48,.08-.83,.97-1.37,1.65Zm4.02-3.18c.11-.09,.22-.18,.33-.26-.44-.62-.82-1.29-1.32-1.86-.94-1.08-1.26-.99-1.83,.44,.94,.56,1.88,1.12,2.83,1.69Zm-13.64-2.03l.04,.29c.68,0,1.38,.07,2.04-.04,.21-.04,.33-.58,.49-.9-.29-.1-.63-.34-.85-.26-.6,.23-1.15,.6-1.72,.91Zm2.58,17.2c-.02,.15-.04,.3-.05,.45,.71,.14,1.41,.32,2.13,.37,.19,.02,.41-.34,.62-.53-.21-.13-.42-.38-.63-.38-.69-.02-1.37,.05-2.06,.09Zm17.62-8.74c-.24-1.01-1.13-1.91-1.94-1.72,.71,.63,1.46,1.29,1.94,1.72Zm-2.19,.1c.32,.49,.65,.98,1,1.51,.39-.77,.17-1.19-1-1.51Z" style="fill: #fff;"/>
    <path d="M33.96,42.42c4.89,3,9.91,3.59,15.17,1.07,.84,2.54,2.26,4.46,4.47,5.64,1.16,.62,2.46,.95,3.67,1.48,.32,.14,.71,.49,.77,.8,1.05,5.49,2.09,10.98,1.96,16.61,0,.35-.05,.7-.07,1.04-.06,.9-.6,1.34-1.44,1.33-4.27-.07-8.32-.93-11.84-3.52-.35-.26-.61-.82-.66-1.27-.31-2.67-.52-5.35-.81-8.02-.06-.56,.06-.88,.55-1.2,.67-.43,1.26-.99,1.89-1.49,.53-.41,.51-.84,.11-1.32-6.81,4.24-10.45,5.01-16.57,3.52,3.1-4.42,3.67-9.33,2.81-14.67Z"/>
    <path d="M49.47,43.49c1.71-.99,3.27-.62,4.2,.85,1.48,2.33,3.79,2.67,6.19,2.28,3.04-.5,5.51-1.95,6.64-5.07,2.28,.35,2.61,.69,2.21,3.07-.34,2.01-1.69,3.35-3.51,4.13-1.01,.43-1.15,.95-.88,1.99,1.46,5.61,2.66,11.27,3.05,17.08,.03,.48,.16,.96,.27,1.44,.04,.16,.16,.3,.37,.7,1.89-1.15,3.74-2.28,5.63-3.44,.25,1.8,.54,3.61,.73,5.44,.04,.34-.24,.78-.49,1.06-2.08,2.26-4.75,3.49-7.64,4.33-5.3,1.55-10.61,2.04-15.95,.17-.46-.16-.92-.33-1.37-.53-3.17-1.38-3.22-1.52-3-4.92,.09-1.46,.02-2.93,.02-4.52,.29,.11,.46,.13,.59,.22,3.21,2.42,6.91,3.38,10.85,3.64,2.99,.2,3.11,.11,3.04-2.87-.13-5.67-.92-11.26-1.88-16.84-.24-1.42-.72-2.11-2.23-2.45-2.35-.52-4.4-1.79-5.84-3.81-.41-.58-.66-1.29-.99-1.97Z" style="fill: #fff;"/>
    <path d="M80.5,70.69c-1.61-2-3.34-3.5-6.35-2.89,0-.99-.16-1.9,.03-2.74,.52-2.27,1.45-4.38,3.09-6.09,.43-.45,.59-.85,.05-1.41-1.93,1.63-2.7,3.9-3.61,6.46-.57-3.86-1.09-7.4-1.61-10.95-.11,.02-.22,.03-.33,.05,.23,1.7,.46,3.41,.7,5.11,.29,2.07,.61,4.14,.89,6.22,.04,.27,0,.7-.18,.83-1.53,1.09-3.1,2.12-4.67,3.16-.13,.09-.33,.06-.4,.08-1.08-6.07-2.16-12.1-3.26-18.28,3.12-1.46,5.25-3.73,4.14-8.03,1.43,.62,2.68,1.09,3.86,1.69,5.11,2.55,9.57,5.89,12.74,10.74,.51,.79,1.02,1.6,1.38,2.46,.25,.61,.48,1.41,.3,2-1.22,4.09-3.07,7.86-6.09,10.97-.19,.2-.41,.37-.67,.62Z"/>
    <path d="M19.81,51.42c.15,.31,.23,.71,.47,.91,1.6,1.31,3.42,2.04,5.53,1.72,1.85-.28,2.53-1.47,1.9-3.26-.06-.16-.12-.32-.17-.47,1.53-1.38,1.58-2.79,.2-5.06,1.93-1.96,1.11-4.82-1.03-6.15-1.05-.65-2.22-1.12-3.16-1.58-.47-1.43-.91-2.77-1.36-4.11-.68-2.03-.16-3.79,1.25-5.31,1.24-1.33,2.78-1.5,4.43-.98,1.14,.36,1.38,.87,.96,1.98-.29,.78-.67,1.54-1.02,2.3-1.15,2.54-.81,4.21,1.25,6.09,.72,.66,1.44,1.33,2.09,2.06,2.32,2.59,2.16,5.8-.38,8.19q-.61,.57-.19,1.41c.21-.08,.43-.17,.7-.28,0,.18,.03,.32,0,.44-.91,3.77-4.31,6.03-8.43,5.59-2.17-.23-4.19-.83-5.6-2.67-1.26-1.65-.69-3.31,1.36-3.65,2.78-.47,5.44,.06,7.84,1.55,.46,.29,.98,1.01,.93,1.47-.06,.44-.76,.94-1.28,1.17-1.37,.6-2.75,.27-4.05-.32-.69-.31-1.33-.75-1.99-1.13l-.24,.09Z" style="fill: #fff;"/>
    <path d="M72.99,27.71c-.34-2.14-1.79-3.51-3.33-4.82,.44-.4,.85-.73,1.22-1.1,1.05-1.04,1.18-1.94,.48-3.2-.55-.99-1.61-1.41-2.88-1.13-.54,.12-1.13,.17-1.62,.41-1.11,.55-1.81,.16-2.45-.77-.43-.63-.98-1.18-1.5-1.74-.6-.63-1.3-.76-2.08-.32-.33,.19-.68,.35-1.01,.55-1.11,.67-2.16,1.17-3.42,.13-.69-.57-1.61-.38-2.3,.27-.69,.65-1.32,1.35-1.99,2-.3,.29-.61,.58-.96,.79-1.57,.94-2.73,.56-3.44-1.1-.78-1.8-.51-3.53,.73-4.72,.85,2.05,2.43,2.44,4.2,1.02,.54-.44,1.05-.92,1.54-1.42,.96-1.01,2.07-1.44,3.39-.81,1.06,.51,1.77,.19,2.36-.74,.3-.47,.67-.9,1.04-1.31,.98-1.08,1.92-1.18,2.95-.14,1.01,1.02,2.26,1.44,3.56,1.88,.69,.24,1.39,.67,1.9,1.2,1.03,1.07,2.01,2.21,2.88,3.41,1.79,2.46,2.77,5.16,1.99,8.25-.29,1.14-.64,2.27-.96,3.41-.09,0-.18,0-.28,0Z" style="fill: #fff;"/>
    <path d="M19.85,47.4c-.76,.08-1.52,.22-2.28,.2-.34,0-.76-.25-1-.52-.52-.59-.85-1.3-.48-2.11,.38-.85,1.04-1.5,1.96-1.56,3.22-.22,6.36,.07,9.03,2.14,.49,.38,.97,1.02,1.05,1.6,.08,.55-.24,1.28-.63,1.73-.4,.47-.99,.3-1.59-.04-1.86-1.07-3.92-1.39-6.06-1.43Z" style="fill: #fff;"/>
    <path d="M19.33,38.14c2.42,.19,4.73,.38,6.78,1.56,.7,.4,1.32,1,1.86,1.62,.65,.74,.49,1.55-.15,2.26-.62,.69-1.23,.57-2.03,.16-2.66-1.37-5.47-1.99-8.48-1.36-.24,.05-.67-.13-.8-.34-.92-1.46-.27-3.16,1.39-3.66,.49-.15,1.02-.18,1.42-.24Z" style="fill: #fff;"/>
    <path d="M77,75.6c-.15,.92,.36,1.1,.99,1.28,.33,.09,.6,.38,.89,.59-.22,.3-.38,.77-.66,.87-.82,.28-1.7,.41-2.63,.62-.39-3.47-.75-6.71-1.11-9.93,2.03-.79,5.33,.72,5.92,2.68,.38,1.26-.91,3.18-2.47,3.68-.29,.09-.6,.14-.93,.21Z" style="fill: #fff;"/>
    <path d="M33.51,42.4c.16,1.07,.54,2.17,.42,3.21-.27,2.34-.74,4.66-1.26,6.96-.18,.78-.67,1.54-1.17,2.2-1.59,2.1-2.31,2.04-4.41,.89,.62-.39,1.25-.73,1.82-1.15,2.05-1.51,2.98-3.61,3.17-6.1,.02-.27-.01-.6,.12-.81,1.01-1.59,1.13-3.33,.92-5.15,.13-.02,.25-.03,.38-.05Z" style="fill: #fff;"/>
    <path d="M49.07,19.93c-.47,.79-.92,1.53-1.37,2.27-.11,.02-.21,.03-.32,.05-.13-.82-.39-1.65-.36-2.46,.04-.94,.45-1.05,1.22-.49,.25,.18,.5,.37,.83,.62Z" style="fill: #fff;"/>
    <path d="M49.29,36.06q-1.46-2.16-.07-3.36c.55,.39,.98,.88,1.52,1.06,2.92,.96,5.8,.51,8.6-.53,.33-.12,.43-.85,.71-1.43,.66,.57,1.55,1.22,2.27,2.01,.22,.24,.04,.91-.05,1.36-.1,.49-.3,.95-.47,1.47-.16-.13-.23-.16-.25-.2-.1-.41-.19-.81-.28-1.22-.4,.15-.81,.3-1.21,.46-1.42,.57-2.79,1.3-4.26,1.68-2.02,.52-3.74-.44-5.33-1.6-.46-.33-.97-.84-1.17,.3Zm-.09-2.08c.55,1.33,1.62,1.34,2.42,1.74,3.17,1.58,6.1,.46,8.97-.95,.15-.07,.31-.33,.29-.48-.02-.15-.25-.39-.4-.39-.54,0-1.12-.02-1.62,.14-2.13,.68-4.26,1.04-6.48,.51-.97-.23-1.96-.36-3.17-.57Z"/>
    <path d="M55.03,31.77c-.65-.24-1.35-.28-1.56-.62-.41-.67-1.34-1.35-.67-2.3,1.01-1.45,2.11-2.84,3.18-4.26,.08-.1,.21-.15,.55-.12-.21,.54-.41,1.09-.63,1.62-.12,.29-.27,.56-.43,.83-.44,.75-1.15,1.45-1.26,2.24-.1,.71,.45,1.51,.84,2.6Z"/>
    <path d="M52.08,25.1c-.35,.71-.59,1.3-.92,1.82-.06,.1-.69,.02-.71-.05-.15-.64-.35-1.32-.25-1.95,.06-.39,.59-.72,.91-1.08,.31,.39,.62,.79,.98,1.25Z"/>
    <path d="M59.92,26.29c.53-.68,.88-1.57,1.37-1.65,.8-.13,.8,.8,.78,1.39-.02,.71-.09,1.62-.99,1.68-.31,.02-.68-.8-1.17-1.42Z"/>
    <path d="M63.94,23.11c-.94-.56-1.89-1.13-2.83-1.69,.57-1.43,.89-1.53,1.83-.44,.5,.57,.88,1.24,1.32,1.86-.11,.09-.22,.18-.33,.26Z"/>
    <path d="M50.3,21.08c.57-.31,1.12-.68,1.72-.91,.22-.08,.56,.16,.85,.26-.16,.31-.28,.86-.49,.9-.66,.12-1.36,.04-2.04,.04l-.04-.29Z"/>
    <path d="M52.87,38.28c.69-.04,1.37-.1,2.06-.09,.21,0,.42,.25,.63,.38-.21,.19-.43,.54-.62,.53-.71-.06-1.42-.24-2.13-.37,.02-.15,.04-.3,.05-.45Z"/>
    <path d="M70.49,29.54c-.48-.42-1.23-1.09-1.94-1.72,.8-.19,1.69,.71,1.94,1.72Z"/>
    <path d="M68.3,29.64c1.16,.32,1.38,.74,1,1.51-.35-.53-.67-1.02-1-1.51Z"/>
    <path d="M49.2,33.97c1.21,.22,2.21,.34,3.17,.57,2.22,.53,4.36,.17,6.48-.51,.51-.16,1.08-.14,1.62-.14,.14,0,.38,.24,.4,.39,.02,.15-.14,.41-.29,.48-2.87,1.41-5.79,2.53-8.97,.95-.79-.39-1.86-.41-2.42-1.74Z" style="fill: #fff;"/>
  </g>
  <g>
    <path d="M171.73,33.43c.2-.73,.31-1.35,.31-1.84,0-1.11-.5-1.67-1.49-1.67h-1.1c-1.49,0-2.56,1.17-3.2,3.51l-9.96,37.29c-.2,.76-.31,1.39-.31,1.89,0,1.08,.45,1.62,1.36,1.62h1.1c1.58,0,2.69-1.17,3.33-3.51l2.28-8.56h14.26l-3.47,12.94c-1.73,6.43-7.33,9.65-16.8,9.65h-5.48c-8.16,0-12.24-2.35-12.24-7.06,0-.79,.12-1.65,.35-2.59l12.5-46.07c1.73-6.43,7.31-9.65,16.76-9.65h5.4c8.16,0,12.24,2.31,12.24,6.93,0,.85-.13,1.75-.39,2.72l-3.47,12.94h-14.26l2.28-8.56Z" style="fill: #fff;"/>
    <path d="M205.91,20.49l-3.07,11.67c-.18,.35-.31,.67-.39,.97-.06,.2-.09,.39-.09,.57,0,1.43,1.65,2.15,4.96,2.15,8.04,0,12.07,2.31,12.07,6.93,0,.82-.13,1.73-.39,2.72l-10.22,38.17h-14.26l9.04-33.78c.18-.7,.26-1.3,.26-1.8,0-1.14-.48-1.71-1.45-1.71h-1.1c-1.52,0-2.59,1.17-3.2,3.51l-9.04,33.78h-14.26l16.89-63.18h14.26Z" style="fill: #fff;"/>
    <path d="M231.31,56.69h6.58l1.89-6.8c.18-.7,.26-1.29,.26-1.75,0-1.17-.51-1.75-1.54-1.75-1.49,0-2.54,1.17-3.16,3.51l-1.45,5.26h-14.22l2.59-9.65c1.73-6.43,7.28-9.65,16.67-9.65h4.43c8.19,0,12.28,2.33,12.28,6.98,0,.82-.13,1.71-.39,2.68l-10.31,38.17h-13.16l-6.84,1.1c-8.07,0-12.11-2.31-12.11-6.93,0-.82,.13-1.73,.39-2.72l2.63-9.87c1.52-5.7,6.67-8.56,15.44-8.56Zm.79,9.43c-1.46,0-2.52,1.17-3.16,3.51l-.26,1.05c-.2,.73-.31,1.35-.31,1.84,0,1.14,.51,1.71,1.54,1.71h1.1c1.37,0,2.43-1.18,3.16-3.55l1.23-4.56h-3.29Z" style="fill: #fff;"/>
    <path d="M264.04,36.94l3.16-11.76,15.62-5.18-4.52,16.94h6.58l-1.93,7.24h-6.58l-7.11,26.54c-.2,.7-.31,1.3-.31,1.8,0,1.14,.51,1.71,1.54,1.71h4.39l-2.81,10.53h-7.68c-7.34,0-11.01-2.25-11.01-6.76,0-.88,.15-1.84,.44-2.9l8.29-30.93h-4.39l1.93-7.24h4.39Z" style="fill: #fff;"/>
    <path d="M294.05,84.77l-5.18-1.1h-14.3l16.89-63.18h14.26l-3.33,12.64c-.12,.23-.19,.44-.22,.61-.03,.12-.04,.25-.04,.39,0,1.14,1.67,1.71,5,1.71,8.04,0,12.07,2.31,12.07,6.93,0,.82-.13,1.73-.39,2.72l-7.94,29.62c-1.73,6.43-7.33,9.65-16.8,9.65Zm.39-10.53c1.58,0,2.59-.8,3.03-2.41l5.88-21.94c.18-.7,.26-1.3,.26-1.8,0-1.14-.48-1.71-1.45-1.71h-1.1c-1.52,0-2.59,1.17-3.2,3.51l-5.88,21.94c-.09,.38-.13,.7-.13,.97,0,.97,.56,1.45,1.67,1.45h.92Z" style="fill: #fff;"/>
    <path d="M345.95,35.98l15.44-15.66-11.41,16.41c3.57,1.23,5.35,3.33,5.35,6.32,0,.76-.12,1.58-.35,2.46l-7.94,29.62c-1.73,6.43-7.33,9.65-16.8,9.65h-5.48c-.73,0-1.65-.03-2.76-.09l-14.79,15.09,10.71-15.93c-3.48-1.26-5.22-3.35-5.22-6.27,0-.76,.12-1.58,.35-2.46l7.94-29.62c1.73-6.43,7.31-9.65,16.76-9.65h5.4c.79,0,1.73,.04,2.81,.13Zm.97,1.45l-25.53,25.84h12.77l-13.25,19.92c.06,.03,.12,.04,.18,.04l24.17-24.79h-12.81l14.52-21.02h-.04Z" style="fill: #fff;"/>
    <path d="M363.85,36.94l3.16-11.76,15.62-5.18-4.52,16.94h6.58l-1.93,7.24h-6.58l-7.11,26.54c-.2,.7-.31,1.3-.31,1.8,0,1.14,.51,1.71,1.54,1.71h4.39l-2.81,10.53h-7.68c-7.34,0-11.01-2.25-11.01-6.76,0-.88,.15-1.84,.44-2.9l8.29-30.93h-4.39l1.93-7.24h4.39Z" style="fill: #fff;"/>
  </g>
</svg>